# xmcd CD database file
#
# Track frame offsets:
#	150
#	17573
#	37204
#	60206
#	75738
#	92505
#	109945
#	125439
#	147419
#	164761
#	184797
#	205111
#
# Disc length: 2995 seconds
#
# Revision: 1
# Processed by: cddbd v1.5.2PL0 Copyright (c) Steve Scherf et al.
# Submitted via: CDex 1.70beta3
#
DISCID=a10bb10c
DTITLE=さくら学院 - さくら学院 2014年度 ～君に届け～
DYEAR=2014
DGENRE=J-POP
TTITLE0=目指せ！スーパーレディー -2014年度-
TTITLE1=アニマリズム
TTITLE2=ハートの地球
TTITLE3=Spin in the Wind
TTITLE4=天使と悪魔
TTITLE5=ヒラリ！キラキラ☆ヤミヤミミュージアム
TTITLE6=ピース de Check!
TTITLE7=宝物
TTITLE8=ご機嫌！ Mr. トロピカリー
TTITLE9=仰げば尊し ～from さくら学院 2014～
TTITLE10=さよなら、涙。
TTITLE11=君に届け
EXTD=YEAR: 2014
EXTT0=
EXTT1=
EXTT2=
EXTT3=
EXTT4=
EXTT5=
EXTT6=
EXTT7=
EXTT8=
EXTT9=
EXTT10=
EXTT11=
PLAYORDER=
